<svg width="654" height="182" viewBox="0 0 654 182" fill="none" xmlns="http://www.w3.org/2000/svg">
<path d="M35.8398 134.953C28.5482 134.953 22.2656 133.423 16.9922 130.363C11.7839 127.303 7.77995 122.941 4.98047 117.277C2.24609 111.548 0.878906 104.712 0.878906 96.7695C0.878906 90.9753 1.46484 84.6602 2.63672 77.8242C3.8737 70.9232 5.79427 64.1198 8.39844 57.4141C11.0677 50.6432 14.5182 44.4909 18.75 38.957C22.9818 33.3581 28.0924 28.8659 34.082 25.4805C40.1367 22.0951 47.2005 20.4023 55.2734 20.4023C62.5 20.4023 68.6523 21.9974 73.7305 25.1875C78.8737 28.3125 82.8125 32.7396 85.5469 38.4688C88.2812 44.1328 89.6484 50.8385 89.6484 58.5859C89.6484 64.8359 88.9974 71.4766 87.6953 78.5078C86.4583 85.474 84.5052 92.3099 81.8359 99.0156C79.1667 105.656 75.7161 111.711 71.4844 117.18C67.2526 122.583 62.1745 126.913 56.25 130.168C50.3906 133.358 43.5872 134.953 35.8398 134.953ZM39.6484 108C41.7318 108 43.6849 106.828 45.5078 104.484C47.3307 102.141 48.9583 99.0807 50.3906 95.3047C51.888 91.4635 53.1576 87.3294 54.1992 82.9023C55.2409 78.4102 56.0221 74.0482 56.543 69.8164C57.1289 65.5195 57.4219 61.776 57.4219 58.5859C57.4219 56.112 57.194 54.0612 56.7383 52.4336C56.3477 50.7409 55.6966 49.4714 54.7852 48.625C53.8737 47.7786 52.6367 47.3555 51.0742 47.3555C48.8607 47.3555 46.8099 48.5273 44.9219 50.8711C43.099 53.2148 41.4388 56.3073 39.9414 60.1484C38.5091 63.9245 37.2721 68.0586 36.2305 72.5508C35.1888 76.9779 34.4076 81.3398 33.8867 85.6367C33.3659 89.9336 33.1055 93.7096 33.1055 96.9648C33.1055 100.48 33.6263 103.215 34.668 105.168C35.7096 107.056 37.3698 108 39.6484 108ZM88.5664 181.047L122.16 22.3555H148.137L147.746 36.418H148.527C151.066 32.4466 153.605 29.3216 156.145 27.043C158.749 24.6992 161.418 23.0065 164.152 21.9648C166.952 20.9232 169.882 20.4023 172.941 20.4023C177.629 20.4023 181.698 21.6068 185.148 24.0156C188.599 26.4245 191.268 30.1029 193.156 35.0508C195.044 39.9336 195.988 46.1836 195.988 53.8008C195.988 60.181 195.37 67.0495 194.133 74.4062C192.961 81.6979 191.171 88.9245 188.762 96.0859C186.418 103.247 183.488 109.758 179.973 115.617C176.457 121.477 172.355 126.164 167.668 129.68C162.98 133.195 157.74 134.953 151.945 134.953C149.016 134.953 146.281 134.4 143.742 133.293C141.268 132.251 139.087 130.721 137.199 128.703C135.311 126.685 133.781 124.243 132.609 121.379H131.926C131.535 125.09 131.079 128.54 130.559 131.73C130.103 134.855 129.712 137.264 129.387 138.957L120.402 181.047H88.5664ZM145.598 107.219C147.616 107.219 149.504 106.047 151.262 103.703C153.02 101.359 154.615 98.332 156.047 94.6211C157.479 90.8451 158.716 86.776 159.758 82.4141C160.799 77.987 161.581 73.6901 162.102 69.5234C162.688 65.2917 162.98 61.6458 162.98 58.5859C162.98 54.7448 162.59 51.9128 161.809 50.0898C161.027 48.2669 159.953 47.3555 158.586 47.3555C156.698 47.3555 154.908 48.2669 153.215 50.0898C151.522 51.8477 149.96 54.1914 148.527 57.1211C147.16 60.0508 145.923 63.3385 144.816 66.9844C143.71 70.5651 142.766 74.2109 141.984 77.9219C141.203 81.5677 140.585 85.0182 140.129 88.2734C139.738 91.4635 139.543 94.1654 139.543 96.3789C139.543 100.09 140.031 102.824 141.008 104.582C142.049 106.34 143.579 107.219 145.598 107.219ZM237.777 134.953C229.118 134.953 223.064 132.512 219.613 127.629C216.163 122.746 214.438 116.594 214.438 109.172C214.438 106.763 214.6 104.191 214.926 101.457C215.251 98.6576 215.805 95.3698 216.586 91.5938L225.668 49.0156H215.609L219.027 32.4141L234.262 23.4297L245.395 0.1875H268.051L263.266 22.3555H282.016L276.449 49.0156H257.602L247.641 96.1836C247.445 97.0951 247.25 98.0065 247.055 98.918C246.924 99.8294 246.859 100.643 246.859 101.359C246.859 103.378 247.25 104.842 248.031 105.754C248.812 106.6 250.212 107.023 252.23 107.023C253.207 107.023 254.867 106.796 257.211 106.34C259.555 105.884 261.964 105.103 264.438 103.996V129.582C260.727 131.6 256.267 133 251.059 133.781C245.915 134.562 241.488 134.953 237.777 134.953ZM280.543 133L303.98 22.3555H329.176L328.785 38.3711H329.566C331.975 34.0742 334.384 30.6237 336.793 28.0195C339.202 25.3503 341.839 23.4297 344.703 22.2578C347.633 21.0208 350.986 20.4023 354.762 20.4023C356.064 20.4023 357.366 20.5 358.668 20.6953C360.035 20.8255 361.728 21.1836 363.746 21.7695L353.785 57.0234C352.288 56.3724 350.725 55.9167 349.098 55.6562C347.535 55.3307 345.842 55.168 344.02 55.168C341.285 55.168 338.811 55.7539 336.598 56.9258C334.384 58.0977 332.464 59.7253 330.836 61.8086C329.208 63.8919 327.841 66.2682 326.734 68.9375C325.628 71.6068 324.781 74.4388 324.195 77.4336L312.574 133H280.543ZM387.273 134.953C382.586 134.953 378.517 133.618 375.066 130.949C371.616 128.215 368.947 124.374 367.059 119.426C365.236 114.478 364.324 108.618 364.324 101.848C364.324 96.1836 364.878 89.7708 365.984 82.6094C367.091 75.4479 368.751 68.2539 370.965 61.0273C373.243 53.7357 376.108 47.0299 379.559 40.9102C383.009 34.7253 387.111 29.7773 391.863 26.0664C396.616 22.2904 402.02 20.4023 408.074 20.4023C410.874 20.4023 413.51 20.8906 415.984 21.8672C418.523 22.8438 420.802 24.4388 422.82 26.6523C424.904 28.8659 426.596 31.8607 427.898 35.6367H428.484L433.66 22.3555H461.688L438.055 133H412.078L411.297 119.816H410.516C408.237 122.681 405.958 125.253 403.68 127.531C401.466 129.81 399.025 131.633 396.355 133C393.751 134.302 390.724 134.953 387.273 134.953ZM401.727 108C404.591 108 407.033 106.47 409.051 103.41C411.134 100.285 412.859 96.5417 414.227 92.1797C415.594 87.8177 416.668 83.7487 417.449 79.9727C418.882 73.7878 419.76 69.2305 420.086 66.3008C420.477 63.306 420.672 60.8646 420.672 58.9766C420.672 55.2656 420.184 52.5638 419.207 50.8711C418.23 49.1133 416.733 48.2344 414.715 48.2344C412.697 48.2344 410.776 49.4388 408.953 51.8477C407.195 54.2565 405.6 57.3815 404.168 61.2227C402.736 65.0638 401.499 69.1979 400.457 73.625C399.48 77.987 398.699 82.2188 398.113 86.3203C397.592 90.4219 397.332 93.9049 397.332 96.7695C397.332 100.48 397.69 103.28 398.406 105.168C399.188 107.056 400.294 108 401.727 108ZM464.316 133L487.949 22.3555H513.535L513.145 35.2461H513.73C515.879 32.1211 518.19 29.4518 520.664 27.2383C523.203 25.0247 525.872 23.332 528.672 22.1602C531.471 20.9883 534.434 20.4023 537.559 20.4023C541.53 20.4023 545.339 21.1836 548.984 22.7461C552.63 24.3086 555.625 26.9779 557.969 30.7539C560.378 34.4648 561.582 39.6732 561.582 46.3789C561.582 48.3971 561.452 50.7083 561.191 53.3125C560.931 55.8516 560.443 58.8789 559.727 62.3945L544.785 133H512.754L525.742 71.3789C526.328 68.5143 526.849 65.7148 527.305 62.9805C527.76 60.2461 527.988 58 527.988 56.2422C527.988 54.0286 527.598 52.3034 526.816 51.0664C526.035 49.8294 524.733 49.2109 522.91 49.2109C520.632 49.2109 518.613 50.4154 516.855 52.8242C515.098 55.2331 513.535 58.4557 512.168 62.4922C510.866 66.5286 509.661 71.0208 508.555 75.9688L496.543 133H464.316ZM602.004 134.953C594.908 134.953 589.276 134.432 585.109 133.391C580.943 132.349 576.841 130.689 572.805 128.41V98.8203C576.841 101.49 581.138 103.573 585.695 105.07C590.253 106.503 594.289 107.219 597.805 107.219C599.628 107.219 601.288 106.958 602.785 106.438C604.283 105.852 605.487 105.005 606.398 103.898C607.31 102.792 607.766 101.424 607.766 99.7969C607.766 98.625 607.538 97.3555 607.082 95.9883C606.691 94.6211 605.78 93.0586 604.348 91.3008C602.915 89.4779 600.734 87.362 597.805 84.9531C593.833 81.6979 590.839 78.5404 588.82 75.4805C586.867 72.3555 585.565 69.2956 584.914 66.3008C584.328 63.306 584.035 60.2786 584.035 57.2188C584.035 50.3828 585.402 44.1979 588.137 38.6641C590.871 33.0651 594.973 28.638 600.441 25.3828C605.975 22.0625 612.811 20.4023 620.949 20.4023C627.264 20.4023 633.319 21.3138 639.113 23.1367C644.973 24.8945 649.855 27.1732 653.762 29.9727L641.555 54.1914C638.299 51.3268 634.849 49.276 631.203 48.0391C627.622 46.8021 624.888 46.1836 623 46.1836C621.112 46.1836 619.647 46.737 618.605 47.8438C617.564 48.8854 617.043 50.4154 617.043 52.4336C617.043 53.6706 617.206 54.8424 617.531 55.9492C617.922 57.056 618.801 58.3581 620.168 59.8555C621.535 61.2878 623.749 63.2083 626.809 65.6172C629.999 68.2214 632.701 70.8906 634.914 73.625C637.128 76.2943 638.82 79.4518 639.992 83.0977C641.164 86.6784 641.75 91.1055 641.75 96.3789C641.75 103.215 640.188 109.562 637.062 115.422C633.938 121.281 629.413 126.001 623.488 129.582C617.564 133.163 610.402 134.953 602.004 134.953Z" fill="#F3F9FE"/>
</svg>
