<svg width="846" height="371" viewBox="0 0 846 371" fill="none" xmlns="http://www.w3.org/2000/svg">
<path d="M0.382812 355.1L91.4971 99.9971H39.8613L166.644 0C134.327 53.8985 140.759 79.2931 218.938 99.9971H166.644L0.382812 355.1Z" fill="#F3F9FE"/>
<path d="M203.84 250.953C196.548 250.953 190.266 249.423 184.992 246.363C179.784 243.303 175.78 238.941 172.98 233.277C170.246 227.548 168.879 220.712 168.879 212.77C168.879 206.975 169.465 200.66 170.637 193.824C171.874 186.923 173.794 180.12 176.398 173.414C179.068 166.643 182.518 160.491 186.75 154.957C190.982 149.358 196.092 144.866 202.082 141.48C208.137 138.095 215.201 136.402 223.273 136.402C230.5 136.402 236.652 137.997 241.73 141.188C246.874 144.312 250.812 148.74 253.547 154.469C256.281 160.133 257.648 166.839 257.648 174.586C257.648 180.836 256.997 187.477 255.695 194.508C254.458 201.474 252.505 208.31 249.836 215.016C247.167 221.656 243.716 227.711 239.484 233.18C235.253 238.583 230.174 242.913 224.25 246.168C218.391 249.358 211.587 250.953 203.84 250.953ZM207.648 224C209.732 224 211.685 222.828 213.508 220.484C215.331 218.141 216.958 215.081 218.391 211.305C219.888 207.464 221.158 203.329 222.199 198.902C223.241 194.41 224.022 190.048 224.543 185.816C225.129 181.52 225.422 177.776 225.422 174.586C225.422 172.112 225.194 170.061 224.738 168.434C224.348 166.741 223.697 165.471 222.785 164.625C221.874 163.779 220.637 163.355 219.074 163.355C216.861 163.355 214.81 164.527 212.922 166.871C211.099 169.215 209.439 172.307 207.941 176.148C206.509 179.924 205.272 184.059 204.23 188.551C203.189 192.978 202.408 197.34 201.887 201.637C201.366 205.934 201.105 209.71 201.105 212.965C201.105 216.48 201.626 219.215 202.668 221.168C203.71 223.056 205.37 224 207.648 224ZM256.566 297.047L290.16 138.355H316.137L315.746 152.418H316.527C319.066 148.447 321.605 145.322 324.145 143.043C326.749 140.699 329.418 139.007 332.152 137.965C334.952 136.923 337.882 136.402 340.941 136.402C345.629 136.402 349.698 137.607 353.148 140.016C356.599 142.424 359.268 146.103 361.156 151.051C363.044 155.934 363.988 162.184 363.988 169.801C363.988 176.181 363.37 183.049 362.133 190.406C360.961 197.698 359.171 204.924 356.762 212.086C354.418 219.247 351.488 225.758 347.973 231.617C344.457 237.477 340.355 242.164 335.668 245.68C330.98 249.195 325.74 250.953 319.945 250.953C317.016 250.953 314.281 250.4 311.742 249.293C309.268 248.251 307.087 246.721 305.199 244.703C303.311 242.685 301.781 240.243 300.609 237.379H299.926C299.535 241.09 299.079 244.54 298.559 247.73C298.103 250.855 297.712 253.264 297.387 254.957L288.402 297.047H256.566ZM313.598 223.219C315.616 223.219 317.504 222.047 319.262 219.703C321.02 217.359 322.615 214.332 324.047 210.621C325.479 206.845 326.716 202.776 327.758 198.414C328.799 193.987 329.581 189.69 330.102 185.523C330.688 181.292 330.98 177.646 330.98 174.586C330.98 170.745 330.59 167.913 329.809 166.09C329.027 164.267 327.953 163.355 326.586 163.355C324.698 163.355 322.908 164.267 321.215 166.09C319.522 167.848 317.96 170.191 316.527 173.121C315.16 176.051 313.923 179.339 312.816 182.984C311.71 186.565 310.766 190.211 309.984 193.922C309.203 197.568 308.585 201.018 308.129 204.273C307.738 207.464 307.543 210.165 307.543 212.379C307.543 216.09 308.031 218.824 309.008 220.582C310.049 222.34 311.579 223.219 313.598 223.219ZM405.777 250.953C397.118 250.953 391.064 248.512 387.613 243.629C384.163 238.746 382.438 232.594 382.438 225.172C382.438 222.763 382.6 220.191 382.926 217.457C383.251 214.658 383.805 211.37 384.586 207.594L393.668 165.016H383.609L387.027 148.414L402.262 139.43L413.395 116.188H436.051L431.266 138.355H450.016L444.449 165.016H425.602L415.641 212.184C415.445 213.095 415.25 214.007 415.055 214.918C414.924 215.829 414.859 216.643 414.859 217.359C414.859 219.378 415.25 220.842 416.031 221.754C416.812 222.6 418.212 223.023 420.23 223.023C421.207 223.023 422.867 222.796 425.211 222.34C427.555 221.884 429.964 221.103 432.438 219.996V245.582C428.727 247.6 424.267 249 419.059 249.781C413.915 250.562 409.488 250.953 405.777 250.953ZM448.543 249L471.98 138.355H497.176L496.785 154.371H497.566C499.975 150.074 502.384 146.624 504.793 144.02C507.202 141.35 509.839 139.43 512.703 138.258C515.633 137.021 518.986 136.402 522.762 136.402C524.064 136.402 525.366 136.5 526.668 136.695C528.035 136.826 529.728 137.184 531.746 137.77L521.785 173.023C520.288 172.372 518.725 171.917 517.098 171.656C515.535 171.331 513.842 171.168 512.02 171.168C509.285 171.168 506.811 171.754 504.598 172.926C502.384 174.098 500.464 175.725 498.836 177.809C497.208 179.892 495.841 182.268 494.734 184.938C493.628 187.607 492.781 190.439 492.195 193.434L480.574 249H448.543ZM555.273 250.953C550.586 250.953 546.517 249.618 543.066 246.949C539.616 244.215 536.947 240.374 535.059 235.426C533.236 230.478 532.324 224.618 532.324 217.848C532.324 212.184 532.878 205.771 533.984 198.609C535.091 191.448 536.751 184.254 538.965 177.027C541.243 169.736 544.108 163.03 547.559 156.91C551.009 150.725 555.111 145.777 559.863 142.066C564.616 138.29 570.02 136.402 576.074 136.402C578.874 136.402 581.51 136.891 583.984 137.867C586.523 138.844 588.802 140.439 590.82 142.652C592.904 144.866 594.596 147.861 595.898 151.637H596.484L601.66 138.355H629.688L606.055 249H580.078L579.297 235.816H578.516C576.237 238.681 573.958 241.253 571.68 243.531C569.466 245.81 567.025 247.633 564.355 249C561.751 250.302 558.724 250.953 555.273 250.953ZM569.727 224C572.591 224 575.033 222.47 577.051 219.41C579.134 216.285 580.859 212.542 582.227 208.18C583.594 203.818 584.668 199.749 585.449 195.973C586.882 189.788 587.76 185.23 588.086 182.301C588.477 179.306 588.672 176.865 588.672 174.977C588.672 171.266 588.184 168.564 587.207 166.871C586.23 165.113 584.733 164.234 582.715 164.234C580.697 164.234 578.776 165.439 576.953 167.848C575.195 170.257 573.6 173.382 572.168 177.223C570.736 181.064 569.499 185.198 568.457 189.625C567.48 193.987 566.699 198.219 566.113 202.32C565.592 206.422 565.332 209.905 565.332 212.77C565.332 216.48 565.69 219.28 566.406 221.168C567.188 223.056 568.294 224 569.727 224ZM632.316 249L655.949 138.355H681.535L681.145 151.246H681.73C683.879 148.121 686.19 145.452 688.664 143.238C691.203 141.025 693.872 139.332 696.672 138.16C699.471 136.988 702.434 136.402 705.559 136.402C709.53 136.402 713.339 137.184 716.984 138.746C720.63 140.309 723.625 142.978 725.969 146.754C728.378 150.465 729.582 155.673 729.582 162.379C729.582 164.397 729.452 166.708 729.191 169.312C728.931 171.852 728.443 174.879 727.727 178.395L712.785 249H680.754L693.742 187.379C694.328 184.514 694.849 181.715 695.305 178.98C695.76 176.246 695.988 174 695.988 172.242C695.988 170.029 695.598 168.303 694.816 167.066C694.035 165.829 692.733 165.211 690.91 165.211C688.632 165.211 686.613 166.415 684.855 168.824C683.098 171.233 681.535 174.456 680.168 178.492C678.866 182.529 677.661 187.021 676.555 191.969L664.543 249H632.316ZM770.004 250.953C762.908 250.953 757.276 250.432 753.109 249.391C748.943 248.349 744.841 246.689 740.805 244.41V214.82C744.841 217.49 749.138 219.573 753.695 221.07C758.253 222.503 762.289 223.219 765.805 223.219C767.628 223.219 769.288 222.958 770.785 222.438C772.283 221.852 773.487 221.005 774.398 219.898C775.31 218.792 775.766 217.424 775.766 215.797C775.766 214.625 775.538 213.355 775.082 211.988C774.691 210.621 773.78 209.059 772.348 207.301C770.915 205.478 768.734 203.362 765.805 200.953C761.833 197.698 758.839 194.54 756.82 191.48C754.867 188.355 753.565 185.296 752.914 182.301C752.328 179.306 752.035 176.279 752.035 173.219C752.035 166.383 753.402 160.198 756.137 154.664C758.871 149.065 762.973 144.638 768.441 141.383C773.975 138.062 780.811 136.402 788.949 136.402C795.264 136.402 801.319 137.314 807.113 139.137C812.973 140.895 817.855 143.173 821.762 145.973L809.555 170.191C806.299 167.327 802.849 165.276 799.203 164.039C795.622 162.802 792.888 162.184 791 162.184C789.112 162.184 787.647 162.737 786.605 163.844C785.564 164.885 785.043 166.415 785.043 168.434C785.043 169.671 785.206 170.842 785.531 171.949C785.922 173.056 786.801 174.358 788.168 175.855C789.535 177.288 791.749 179.208 794.809 181.617C797.999 184.221 800.701 186.891 802.914 189.625C805.128 192.294 806.82 195.452 807.992 199.098C809.164 202.678 809.75 207.105 809.75 212.379C809.75 219.215 808.188 225.562 805.062 231.422C801.938 237.281 797.413 242.001 791.488 245.582C785.564 249.163 778.402 250.953 770.004 250.953Z" fill="#F3F9FE"/>
</svg>
